<mxfile host="app.diagrams.net" modified="2021-12-24T17:26:06.667Z" agent="5.0 (Macintosh; Intel Mac OS X 10_15_2) AppleWebKit/605.1.15 (KHTML, like Gecko) Version/13.0.4 Safari/605.1.15" etag="8knNGya5BofRrZATFpA4" version="16.1.0" type="github">
  <diagram id="UfmZcZUgszk8OOR1oBgz" name="Page-1">
    <mxGraphModel dx="891" dy="526" grid="1" gridSize="10" guides="1" tooltips="1" connect="1" arrows="1" fold="1" page="1" pageScale="1" pageWidth="827" pageHeight="1169" math="0" shadow="0">
      <root>
        <mxCell id="0" />
        <mxCell id="1" parent="0" />
        <mxCell id="yg2f-OdLsY0NM2jIDbTP-5" value="营收（ 美元）" style="swimlane;fontStyle=0;childLayout=stackLayout;horizontal=1;startSize=30;horizontalStack=0;resizeParent=1;resizeParentMax=0;resizeLast=0;collapsible=1;marginBottom=0;" parent="1" vertex="1">
          <mxGeometry x="20" y="380" width="190" height="180" as="geometry" />
        </mxCell>
        <mxCell id="yg2f-OdLsY0NM2jIDbTP-6" value="整车制造业务 2025亿" style="text;strokeColor=#82b366;fillColor=#d5e8d4;align=left;verticalAlign=middle;spacingLeft=4;spacingRight=4;overflow=hidden;points=[[0,0.5],[1,0.5]];portConstraint=eastwest;rotatable=0;" parent="yg2f-OdLsY0NM2jIDbTP-5" vertex="1">
          <mxGeometry y="30" width="190" height="30" as="geometry" />
        </mxCell>
        <mxCell id="yg2f-OdLsY0NM2jIDbTP-7" value="辅助驾驶软件业务 40.5亿" style="text;strokeColor=#82b366;fillColor=#d5e8d4;align=left;verticalAlign=middle;spacingLeft=4;spacingRight=4;overflow=hidden;points=[[0,0.5],[1,0.5]];portConstraint=eastwest;rotatable=0;" parent="yg2f-OdLsY0NM2jIDbTP-5" vertex="1">
          <mxGeometry y="60" width="190" height="30" as="geometry" />
        </mxCell>
        <mxCell id="emjM4xV2LVJMVLJcVNja-2" value="汽车保险业务 60亿" style="text;strokeColor=#82b366;fillColor=#d5e8d4;align=left;verticalAlign=middle;spacingLeft=4;spacingRight=4;overflow=hidden;points=[[0,0.5],[1,0.5]];portConstraint=eastwest;rotatable=0;" parent="yg2f-OdLsY0NM2jIDbTP-5" vertex="1">
          <mxGeometry y="90" width="190" height="30" as="geometry" />
        </mxCell>
        <mxCell id="_scnfwicN0OqMZllfAQ0-3" value="能源业务（不考虑）" style="text;strokeColor=#82b366;fillColor=#d5e8d4;align=left;verticalAlign=middle;spacingLeft=4;spacingRight=4;overflow=hidden;points=[[0,0.5],[1,0.5]];portConstraint=eastwest;rotatable=0;" parent="yg2f-OdLsY0NM2jIDbTP-5" vertex="1">
          <mxGeometry y="120" width="190" height="30" as="geometry" />
        </mxCell>
        <mxCell id="yg2f-OdLsY0NM2jIDbTP-28" value="总营收2065.5亿" style="text;strokeColor=#d6b656;fillColor=#fff2cc;align=left;verticalAlign=middle;spacingLeft=4;spacingRight=4;overflow=hidden;points=[[0,0.5],[1,0.5]];portConstraint=eastwest;rotatable=0;" parent="yg2f-OdLsY0NM2jIDbTP-5" vertex="1">
          <mxGeometry y="150" width="190" height="30" as="geometry" />
        </mxCell>
        <mxCell id="yg2f-OdLsY0NM2jIDbTP-32" value="特斯拉2025业务假设" style="text;html=1;strokeColor=none;fillColor=none;align=center;verticalAlign=middle;whiteSpace=wrap;rounded=0;fontSize=17;" parent="1" vertex="1">
          <mxGeometry x="230" y="330" width="268" height="30" as="geometry" />
        </mxCell>
        <mxCell id="_scnfwicN0OqMZllfAQ0-4" value="&lt;span&gt;*&lt;/span&gt;&lt;span&gt;浓缩的财务状况省略了数额较小的项目&lt;/span&gt;&lt;span&gt;&lt;br&gt;*&lt;/span&gt;&lt;span&gt;*&lt;/span&gt;&lt;span&gt;客户贷款的平均年利率估算为为11.7%&lt;br&gt;&lt;/span&gt;&lt;span&gt;***2021年前9个月的坏账都以及在2020年时提前减值了，我们这里以1%的坏账率来估计。&lt;/span&gt;&lt;span&gt;&lt;br&gt;&lt;/span&gt;&lt;span&gt;&lt;br&gt;&lt;/span&gt;" style="text;html=1;strokeColor=none;fillColor=none;align=left;verticalAlign=middle;whiteSpace=wrap;rounded=0;" parent="1" vertex="1">
          <mxGeometry x="90" y="620" width="370" height="80" as="geometry" />
        </mxCell>
        <mxCell id="emjM4xV2LVJMVLJcVNja-3" value="毛利（2025年, 美元）" style="swimlane;fontStyle=0;childLayout=stackLayout;horizontal=1;startSize=30;horizontalStack=0;resizeParent=1;resizeParentMax=0;resizeLast=0;collapsible=1;marginBottom=0;" parent="1" vertex="1">
          <mxGeometry x="230" y="380" width="190" height="180" as="geometry" />
        </mxCell>
        <mxCell id="emjM4xV2LVJMVLJcVNja-4" value="整车制造业务 617亿" style="text;strokeColor=#82b366;fillColor=#d5e8d4;align=left;verticalAlign=middle;spacingLeft=4;spacingRight=4;overflow=hidden;points=[[0,0.5],[1,0.5]];portConstraint=eastwest;rotatable=0;" parent="emjM4xV2LVJMVLJcVNja-3" vertex="1">
          <mxGeometry y="30" width="190" height="30" as="geometry" />
        </mxCell>
        <mxCell id="emjM4xV2LVJMVLJcVNja-5" value="辅助驾驶软件业务 40.5亿" style="text;strokeColor=#82b366;fillColor=#d5e8d4;align=left;verticalAlign=middle;spacingLeft=4;spacingRight=4;overflow=hidden;points=[[0,0.5],[1,0.5]];portConstraint=eastwest;rotatable=0;" parent="emjM4xV2LVJMVLJcVNja-3" vertex="1">
          <mxGeometry y="60" width="190" height="30" as="geometry" />
        </mxCell>
        <mxCell id="emjM4xV2LVJMVLJcVNja-6" value="汽车保险业务 3亿" style="text;strokeColor=#82b366;fillColor=#d5e8d4;align=left;verticalAlign=middle;spacingLeft=4;spacingRight=4;overflow=hidden;points=[[0,0.5],[1,0.5]];portConstraint=eastwest;rotatable=0;" parent="emjM4xV2LVJMVLJcVNja-3" vertex="1">
          <mxGeometry y="90" width="190" height="30" as="geometry" />
        </mxCell>
        <mxCell id="emjM4xV2LVJMVLJcVNja-7" value="能源业务（不考虑）" style="text;strokeColor=#82b366;fillColor=#d5e8d4;align=left;verticalAlign=middle;spacingLeft=4;spacingRight=4;overflow=hidden;points=[[0,0.5],[1,0.5]];portConstraint=eastwest;rotatable=0;" parent="emjM4xV2LVJMVLJcVNja-3" vertex="1">
          <mxGeometry y="120" width="190" height="30" as="geometry" />
        </mxCell>
        <mxCell id="emjM4xV2LVJMVLJcVNja-8" value="总毛利 660.5亿" style="text;strokeColor=#d6b656;fillColor=#fff2cc;align=left;verticalAlign=middle;spacingLeft=4;spacingRight=4;overflow=hidden;points=[[0,0.5],[1,0.5]];portConstraint=eastwest;rotatable=0;" parent="emjM4xV2LVJMVLJcVNja-3" vertex="1">
          <mxGeometry y="150" width="190" height="30" as="geometry" />
        </mxCell>
        <mxCell id="emjM4xV2LVJMVLJcVNja-9" value="净利润（2025年, 美元）" style="swimlane;fontStyle=0;childLayout=stackLayout;horizontal=1;startSize=30;horizontalStack=0;resizeParent=1;resizeParentMax=0;resizeLast=0;collapsible=1;marginBottom=0;" parent="1" vertex="1">
          <mxGeometry x="438" y="380" width="242" height="120" as="geometry" />
        </mxCell>
        <mxCell id="emjM4xV2LVJMVLJcVNja-12" value="经营成本 300亿" style="text;strokeColor=#b85450;fillColor=#f8cecc;align=left;verticalAlign=middle;spacingLeft=4;spacingRight=4;overflow=hidden;points=[[0,0.5],[1,0.5]];portConstraint=eastwest;rotatable=0;" parent="emjM4xV2LVJMVLJcVNja-9" vertex="1">
          <mxGeometry y="30" width="242" height="30" as="geometry" />
        </mxCell>
        <mxCell id="emjM4xV2LVJMVLJcVNja-13" value="企业所得税 76亿" style="text;strokeColor=#b85450;fillColor=#f8cecc;align=left;verticalAlign=middle;spacingLeft=4;spacingRight=4;overflow=hidden;points=[[0,0.5],[1,0.5]];portConstraint=eastwest;rotatable=0;" parent="emjM4xV2LVJMVLJcVNja-9" vertex="1">
          <mxGeometry y="60" width="242" height="30" as="geometry" />
        </mxCell>
        <mxCell id="emjM4xV2LVJMVLJcVNja-21" value="净利润 = 总毛利 -经营成本-税=285亿  " style="text;strokeColor=#6c8ebf;fillColor=#dae8fc;align=left;verticalAlign=middle;spacingLeft=4;spacingRight=4;overflow=hidden;points=[[0,0.5],[1,0.5]];portConstraint=eastwest;rotatable=0;" parent="emjM4xV2LVJMVLJcVNja-9" vertex="1">
          <mxGeometry y="90" width="242" height="30" as="geometry" />
        </mxCell>
      </root>
    </mxGraphModel>
  </diagram>
</mxfile>
